<svg width="16" height="16" viewBox="0 0 16 16" fill="none" xmlns="http://www.w3.org/2000/svg">
<path d="M8.00001 0.125C10.0887 0.125 12.0919 0.954744 13.5689 2.4317C15.0458 3.90865 15.8756 5.91183 15.8756 8.00056C15.8756 10.0893 15.0458 12.0925 13.5689 13.5694C12.0919 15.0464 10.0887 15.8761 8.00001 15.8761C5.91128 15.8761 3.9081 15.0464 2.43115 13.5694C0.954195 12.0925 0.124451 10.0893 0.124451 8.00056C0.124451 5.91183 0.954195 3.90865 2.43115 2.4317C3.9081 0.954744 5.91128 0.125 8.00001 0.125ZM9.18126 4.96025C9.76626 4.96025 10.241 4.55412 10.241 3.95225C10.241 3.35037 9.76514 2.94425 9.18126 2.94425C8.59626 2.94425 8.12376 3.35037 8.12376 3.95225C8.12376 4.55412 8.59626 4.96025 9.18126 4.96025ZM9.38714 11.2906C9.38714 11.1702 9.42876 10.8575 9.40514 10.6798L8.48039 11.744C8.28914 11.9454 8.04951 12.0849 7.93701 12.0477C7.88597 12.029 7.84331 11.9926 7.81671 11.9452C7.7901 11.8977 7.7813 11.8423 7.79189 11.789L9.33314 6.92C9.45914 6.30237 9.11264 5.73875 8.37801 5.66675C7.60289 5.66675 6.46214 6.45312 5.76801 7.451C5.76801 7.57025 5.74551 7.86725 5.76914 8.045L6.69276 6.97962C6.88401 6.7805 7.10676 6.63987 7.21926 6.67812C7.27469 6.69802 7.32011 6.73885 7.34577 6.79185C7.37143 6.84486 7.37529 6.90581 7.35651 6.96163L5.82876 11.807C5.65214 12.374 5.98626 12.9298 6.79626 13.0558C7.98876 13.0558 8.69301 12.2885 9.38826 11.2906H9.38714Z" fill="#663B8D"/>
</svg>
