<svg width="20" height="20" viewBox="0 0 20 20" fill="none" xmlns="http://www.w3.org/2000/svg">
<g clip-path="url(#clip0_43_322)">
<path fill-rule="evenodd" clip-rule="evenodd" d="M13.0892 9.41083C13.2454 9.5671 13.3332 9.77903 13.3332 10C13.3332 10.221 13.2454 10.4329 13.0892 10.5892L8.375 15.3033C8.29813 15.3829 8.20617 15.4464 8.1045 15.4901C8.00283 15.5338 7.89348 15.5567 7.78284 15.5577C7.67219 15.5587 7.56245 15.5376 7.46004 15.4957C7.35763 15.4538 7.26458 15.3919 7.18634 15.3137C7.10809 15.2354 7.04622 15.1424 7.00432 15.04C6.96242 14.9375 6.94133 14.8278 6.94229 14.7172C6.94325 14.6065 6.96624 14.4972 7.00992 14.3955C7.05359 14.2938 7.11708 14.2019 7.19667 14.125L11.3217 10L7.19667 5.875C7.04487 5.71783 6.96087 5.50733 6.96277 5.28883C6.96467 5.07033 7.05231 4.86132 7.20682 4.70682C7.36133 4.55231 7.57034 4.46467 7.78883 4.46277C8.00733 4.46087 8.21783 4.54487 8.375 4.69666L13.0892 9.41083Z" fill="black"/>
<path fill-rule="evenodd" clip-rule="evenodd" d="M13.0892 9.41083C13.2454 9.5671 13.3332 9.77903 13.3332 10C13.3332 10.221 13.2454 10.4329 13.0892 10.5892L8.375 15.3033C8.29813 15.3829 8.20617 15.4464 8.1045 15.4901C8.00283 15.5338 7.89348 15.5567 7.78284 15.5577C7.67219 15.5587 7.56245 15.5376 7.46004 15.4957C7.35763 15.4538 7.26458 15.3919 7.18634 15.3137C7.10809 15.2354 7.04622 15.1424 7.00432 15.04C6.96242 14.9375 6.94133 14.8278 6.94229 14.7172C6.94325 14.6065 6.96624 14.4972 7.00992 14.3955C7.05359 14.2938 7.11708 14.2019 7.19667 14.125L11.3217 10L7.19667 5.875C7.04487 5.71783 6.96087 5.50733 6.96277 5.28883C6.96467 5.07033 7.05231 4.86132 7.20682 4.70682C7.36133 4.55231 7.57034 4.46467 7.78883 4.46277C8.00733 4.46087 8.21783 4.54487 8.375 4.69666L13.0892 9.41083Z" fill="black"/>
</g>
<defs>
<clipPath id="clip0_43_322">
<rect width="20" height="20" fill="white"/>
</clipPath>
</defs>
</svg>
