<svg width="34" height="34" viewBox="0 0 34 34" fill="none" xmlns="http://www.w3.org/2000/svg">
<path fill-rule="evenodd" clip-rule="evenodd" d="M34 17C34 21.5581 32.206 25.6972 29.2859 28.7499C26.2016 31.9738 21.8613 33.9859 17.0507 34H17H16.9493C12.1387 33.9859 7.79829 31.9738 4.71417 28.7499C1.79389 25.6972 0 21.5581 0 17C0 7.61117 7.61117 0 17 0C26.3889 0 34 7.61117 34 17ZM27.3039 25.5C24.8542 22.5334 21.1479 20.6428 17 20.6428C12.8521 20.6428 9.14585 22.5334 6.69594 25.5C9.14585 28.4665 12.8521 30.3571 17 30.3571C21.1479 30.3571 24.8542 28.4665 27.3039 25.5ZM17.0003 18.2142C20.3534 18.2142 23.0717 15.4959 23.0717 12.1428C23.0717 8.78963 20.3534 6.07136 17.0003 6.07136C13.6471 6.07136 10.9289 8.78963 10.9289 12.1428C10.9289 15.4959 13.6471 18.2142 17.0003 18.2142Z" fill="#49008C"/>
</svg>
